<svg width="512" height="512" viewBox="0 0 512 512" xmlns="http://www.w3.org/2000/svg" fill="none">
  <defs>
    <linearGradient id="shieldGray" x1="64" y1="60" x2="448" y2="452" gradientUnits="userSpaceOnUse">
      <stop offset="0" stop-color="#d8d8d8"/>
      <stop offset="1" stop-color="#8a8a8a"/>
    </linearGradient>
  </defs>
  <path d="M256 36L422 86L386 148L458 172L432 344L256 500L230 426L176 468L92 344L66 172L138 148L102 86L256 36Z" fill="url(#shieldGray)"/>
  <rect x="165" y="188" width="182" height="178" rx="28" fill="none" stroke="#0b0b0b" stroke-width="14"/>
  <path d="M203 188V154C203 118 232 90 268 90C304 90 333 118 333 154V188" stroke="#0b0b0b" stroke-width="14"/>
  <path d="M230 188V154C230 133 247 116 268 116C289 116 306 133 306 154V188" stroke="#0b0b0b" stroke-width="14"/>
  <path d="M268 240C250 240 236 254 236 272C236 285 243 297 254 303V329H282V303C293 297 300 285 300 272C300 254 286 240 268 240Z" fill="#0b0b0b"/>
</svg>
